<svg width="32" height="32" viewBox="0 0 32 32" fill="none" xmlns="http://www.w3.org/2000/svg">
<path d="M16 3C13.4288 3 10.9154 3.76244 8.77759 5.19089C6.63975 6.61935 4.97351 8.64967 3.98957 11.0251C3.00563 13.4006 2.74819 16.0144 3.2498 18.5362C3.7514 21.0579 4.98953 23.3743 6.80762 25.1924C8.6257 27.0105 10.9421 28.2486 13.4638 28.7502C15.9856 29.2518 18.5994 28.9944 20.9749 28.0104C23.3503 27.0265 25.3806 25.3602 26.8091 23.2224C28.2376 21.0846 29 18.5712 29 16C29 12.5522 27.6304 9.24558 25.1924 6.80761C22.7544 4.36964 19.4478 3 16 3ZM16.8864 22.3286C16.8864 22.5637 16.793 22.7892 16.6268 22.9554C16.4605 23.1216 16.2351 23.215 16 23.215C15.7649 23.215 15.5395 23.1216 15.3732 22.9554C15.207 22.7892 15.1136 22.5637 15.1136 22.3286V13.465C15.1136 13.2299 15.207 13.0045 15.3732 12.8382C15.5395 12.672 15.7649 12.5786 16 12.5786C16.2351 12.5786 16.4605 12.672 16.6268 12.8382C16.793 13.0045 16.8864 13.2299 16.8864 13.465V22.3286ZM16.8214 10.0023C16.7745 10.1081 16.7084 10.2043 16.6264 10.2859C16.5436 10.3693 16.4452 10.4356 16.3368 10.4809C16.2296 10.5235 16.1154 10.5455 16 10.5459C15.8834 10.5471 15.7679 10.5247 15.6602 10.48C15.5525 10.4353 15.4551 10.3693 15.3736 10.2859C15.2916 10.2043 15.2255 10.1081 15.1786 10.0023C15.1367 9.89283 15.1147 9.77675 15.1136 9.65954C15.1075 9.60259 15.1075 9.54514 15.1136 9.48818C15.1259 9.43208 15.1417 9.37682 15.1609 9.32273C15.1849 9.26968 15.2126 9.21835 15.2436 9.16909C15.2778 9.12119 15.3153 9.07578 15.3559 9.03318C15.3972 8.99118 15.4428 8.95356 15.4918 8.92091C15.5392 8.8883 15.5909 8.86245 15.6455 8.84409C15.6984 8.82021 15.7539 8.80237 15.8109 8.79091C15.9239 8.76733 16.0406 8.76733 16.1536 8.79091C16.2106 8.80237 16.2661 8.82021 16.3191 8.84409C16.3731 8.86368 16.4247 8.88946 16.4727 8.92091C16.5206 8.95508 16.566 8.9926 16.6086 9.03318C16.7738 9.19997 16.8672 9.4248 16.8686 9.65954C16.874 9.77766 16.858 9.89577 16.8214 10.0082V10.0023Z" fill="#E5D8C5" fill-opacity="0.8"/>
</svg>
