<svg width="32" height="32" viewBox="0 0 32 32" fill="none" xmlns="http://www.w3.org/2000/svg">
<path d="M16.0028 15.7966C18.2307 15.7966 20.0368 13.9905 20.0368 11.7626C20.0368 9.53462 18.2307 7.72852 16.0028 7.72852C13.7749 7.72852 11.9688 9.53462 11.9688 11.7626C11.9688 13.9905 13.7749 15.7966 16.0028 15.7966Z" fill="#E5D8C5" fill-opacity="0.8"/>
<path d="M19.0645 17.9404H12.9369C11.456 17.9404 10.2305 19.166 10.2305 20.6468V27.0298C12.0177 27.5915 13.9581 27.8468 16.0007 27.8468C18.0432 27.8468 19.9837 27.5404 21.7709 27.0298V20.6468C21.7709 19.166 20.5454 17.9404 19.0645 17.9404ZM22.2305 4C20.3922 4 18.8092 5.2766 18.3496 6.9617C20.1369 7.82979 21.3624 9.66808 21.3624 11.7617C21.3624 11.8128 21.3624 11.9149 21.3624 11.966C21.6688 12.017 21.9241 12.0681 22.2815 12.0681C24.5283 12.0681 26.3156 10.2809 26.3156 8.03404C26.3156 5.78723 24.4262 4 22.2305 4Z" fill="#E5D8C5" fill-opacity="0.8"/>
<path d="M25.2936 14.2128H20.7489C20.1872 15.2851 19.2681 16.1532 18.1447 16.6638H19.0638C21.2596 16.6638 23.0979 18.4511 23.0979 20.6979V24.2213C24.834 24.1702 26.4681 23.8638 28 23.4043V16.9191C28 15.4383 26.7745 14.2128 25.2936 14.2128ZM10.6894 11.966C10.6894 11.9149 10.6894 11.8128 10.6894 11.7617C10.6894 9.66809 11.9149 7.82979 13.7021 6.9617C13.2426 5.22553 11.6596 4 9.82128 4C7.57447 4 5.78723 5.78723 5.78723 8.03404C5.78723 10.2809 7.57447 12.0681 9.82128 12.0681C10.0766 12.0681 10.383 12.017 10.6894 11.966ZM8.90213 20.6468C8.90213 18.4511 10.6894 16.6128 12.9362 16.6128H13.9064C12.783 16.1021 11.8638 15.234 11.3021 14.1617H6.70638C5.22553 14.1617 4 15.3872 4 16.8681V23.2511C5.53191 23.7106 7.21702 24.017 8.90213 24.0681V20.6468Z" fill="#E5D8C5" fill-opacity="0.8"/>
</svg>
