<svg width="30" height="30" viewBox="0 0 30 30" fill="none" xmlns="http://www.w3.org/2000/svg">
<path d="M23.0335 2.14258C24.3616 2.14258 25.4972 2.61412 26.4403 3.5572C27.3834 4.50028 27.8549 5.63588 27.8549 6.96401V23.0354C27.8549 24.3636 27.3834 25.4992 26.4403 26.4422C25.4972 27.3853 24.3616 27.8569 23.0335 27.8569H19.8862V17.8959H23.2176L23.7199 14.012H19.8862V11.5343C19.8862 10.9093 20.0173 10.4406 20.2796 10.1281C20.5419 9.81557 21.0525 9.65932 21.8114 9.65932L23.8538 9.64258V6.17718C23.1507 6.07673 22.1574 6.02651 20.8739 6.02651C19.356 6.02651 18.1423 6.47294 17.2327 7.36579C16.3231 8.25865 15.8683 9.51981 15.8683 11.1493V14.012H12.5201V17.8959H15.8683V27.8569H6.96205C5.63393 27.8569 4.49833 27.3853 3.55525 26.4422C2.61217 25.4992 2.14062 24.3636 2.14062 23.0354V6.96401C2.14062 5.63588 2.61217 4.50028 3.55525 3.5572C4.49833 2.61412 5.63393 2.14258 6.96205 2.14258H23.0335Z" fill="#E5D8C5"/>
</svg>
