<svg width="32" height="32" viewBox="0 0 32 32" fill="none" xmlns="http://www.w3.org/2000/svg">
<path d="M26 21.3008V25.9208C25.9993 26.4316 25.8682 26.9339 25.619 27.3799C25.3698 27.8258 25.0109 28.2008 24.5762 28.4692C24.1416 28.7376 23.6455 28.8906 23.1352 28.9136C22.6248 28.9367 22.1171 28.829 21.66 28.6008L21.36 28.4508C21.2311 28.3928 21.0913 28.3629 20.95 28.3629C20.8087 28.3629 20.6689 28.3928 20.54 28.4508L17.12 29.8208C16.7607 29.9485 16.3812 30.0095 16 30.0008C15.62 30.0017 15.2434 29.9304 14.89 29.7908L11.46 28.4208C11.3311 28.3628 11.1913 28.3329 11.05 28.3329C10.9087 28.3329 10.7689 28.3628 10.64 28.4208L10.34 28.5708C9.88519 28.7979 9.38014 28.9057 8.87224 28.8841C8.36435 28.8624 7.87028 28.7121 7.43641 28.4472C7.00254 28.1823 6.64311 27.8115 6.39186 27.3695C6.1406 26.9276 6.00576 26.4291 6 25.9208V21.3008C6.59586 22.0167 7.26631 22.667 8 23.2408C10.2851 25.0248 13.101 25.9938 16 25.9938C18.899 25.9938 21.7149 25.0248 24 23.2408C24.7337 22.667 25.4041 22.0167 26 21.3008Z" fill="#E5D8C5" fill-opacity="0.8"/>
<path d="M16 2C13.8244 2 11.6977 2.64514 9.88873 3.85383C8.07979 5.06253 6.66989 6.7805 5.83733 8.79048C5.00477 10.8005 4.78693 13.0122 5.21137 15.146C5.6358 17.2798 6.68345 19.2398 8.22183 20.7782C9.76021 22.3166 11.7202 23.3642 13.854 23.7886C15.9878 24.2131 18.1995 23.9952 20.2095 23.1627C22.2195 22.3301 23.9375 20.9202 25.1462 19.1113C26.3549 17.3023 27 15.1756 27 13C27 10.0826 25.8411 7.28473 23.7782 5.22183C21.7153 3.15893 18.9174 2 16 2ZM21.26 13.41L19.73 14.62L20.3 16.39C20.4221 16.7905 20.4153 17.2192 20.2808 17.6157C20.1462 18.0122 19.8906 18.3565 19.55 18.6C19.24 18.8195 18.8699 18.9382 18.49 18.94C18.0774 18.9393 17.6766 18.8022 17.35 18.55L16 17.55L14.65 18.55C14.3383 18.7958 13.9552 18.9336 13.5584 18.9426C13.1615 18.9516 12.7725 18.8314 12.45 18.6C12.1094 18.3565 11.8538 18.0122 11.7192 17.6157C11.5847 17.2192 11.578 16.7905 11.7 16.39L12.25 14.61L10.74 13.41C10.4205 13.1511 10.1886 12.8 10.0759 12.4045C9.96317 12.0091 9.97508 11.5885 10.11 11.2C10.237 10.8254 10.4777 10.4998 10.7986 10.2686C11.1194 10.0373 11.5045 9.91196 11.9 9.91H13.66L14.19 8.22C14.3008 7.82526 14.5377 7.47757 14.8645 7.22992C15.1912 6.98227 15.59 6.84823 16 6.84823C16.41 6.84823 16.8088 6.98227 17.1355 7.22992C17.4623 7.47757 17.6992 7.82526 17.81 8.22L18.34 9.91H20.1C20.4955 9.91196 20.8806 10.0373 21.2014 10.2686C21.5223 10.4998 21.763 10.8254 21.89 11.2C22.0249 11.5885 22.0368 12.0091 21.9241 12.4045C21.8114 12.8 21.5795 13.1511 21.26 13.41Z" fill="#E5D8C5" fill-opacity="0.8"/>
<path d="M18.4903 13.0609C18.183 13.3115 17.9572 13.6478 17.8414 14.027C17.7257 14.4063 17.7253 14.8114 17.8403 15.1909L18.3703 16.8109L17.1403 15.8609C16.8114 15.6142 16.4114 15.4809 16.0003 15.4809C15.5892 15.4809 15.1892 15.6142 14.8603 15.8609L13.6703 16.7809L14.1603 15.1909C14.2753 14.8114 14.2749 14.4063 14.1592 14.027C14.0435 13.6478 13.8176 13.3115 13.5103 13.0609L12.0703 11.9109H13.7403C14.148 11.9084 14.5441 11.7748 14.87 11.5299C15.1959 11.285 15.4345 10.9417 15.5503 10.5509L16.0003 9.13086L16.4503 10.5509C16.5662 10.9417 16.8047 11.285 17.1306 11.5299C17.4566 11.7748 17.8526 11.9084 18.2603 11.9109H19.9303L18.4903 13.0609Z" fill="#E5D8C5" fill-opacity="0.8"/>
</svg>
