<svg width="32" height="15" viewBox="0 0 32 15" fill="none" xmlns="http://www.w3.org/2000/svg">
<path d="M30.36 2.28H1.14C0.51 2.28 0 1.77 0 1.14C0 0.51 0.51 0 1.14 0H30.36C30.99 0 31.5 0.51 31.5 1.14C31.5 1.77 30.99 2.28 30.36 2.28ZM30.36 8.2875H1.14C0.51 8.2875 0 7.7775 0 7.1475C0 6.5175 0.51 6.0075 1.14 6.0075H30.36C30.99 6.0075 31.5 6.5175 31.5 7.1475C31.5 7.7775 30.99 8.2875 30.36 8.2875ZM30.36 14.295H1.14C0.51 14.295 0 13.785 0 13.155C0 12.525 0.51 12.015 1.14 12.015H30.36C30.99 12.015 31.5 12.525 31.5 13.155C31.5 13.785 30.99 14.295 30.36 14.295Z" fill="#66381F"/>
</svg>
