<svg xmlns="http://www.w3.org/2000/svg" width="36" height="36" fill="none">
  <path fill="#ADADAF" d="M28.5 6H27V4.5c0-.9-.6-1.5-1.5-1.5S24 3.6 24 4.5V6H12V4.5c0-.9-.6-1.5-1.5-1.5S9 3.6 9 4.5V6H7.5C5 6 3 8 3 10.5V12h30v-1.5C33 8 31 6 28.5 6ZM3 28.5C3 31.1 5 33 7.5 33h21c2.6 0 4.5-2 4.5-4.5V15H3v13.5ZM25.5 18c.9 0 1.5.6 1.5 1.5s-.6 1.5-1.5 1.5-1.5-.6-1.5-1.5.6-1.5 1.5-1.5Zm0 6c.9 0 1.5.6 1.5 1.5s-.6 1.5-1.5 1.5-1.5-.6-1.5-1.5.6-1.5 1.5-1.5ZM18 18c.9 0 1.5.6 1.5 1.5S18.9 21 18 21s-1.5-.6-1.5-1.5.6-1.5 1.5-1.5Zm0 6c.9 0 1.5.6 1.5 1.5S18.9 27 18 27s-1.5-.6-1.5-1.5.6-1.5 1.5-1.5Zm-7.5-6c.9 0 1.5.6 1.5 1.5s-.6 1.5-1.5 1.5S9 20.4 9 19.5s.6-1.5 1.5-1.5Zm0 6c.9 0 1.5.6 1.5 1.5s-.6 1.5-1.5 1.5S9 26.4 9 25.5s.6-1.5 1.5-1.5Z"/>
</svg>
