<svg width="30" height="30" viewBox="0 0 30 30" fill="none" xmlns="http://www.w3.org/2000/svg">
<path d="M25.5867 2.50017H4.41172C4.17369 2.49687 3.93734 2.54048 3.71618 2.62853C3.49501 2.71657 3.29335 2.84733 3.12272 3.01331C2.95208 3.1793 2.81582 3.37728 2.72171 3.59594C2.6276 3.81459 2.57748 4.04965 2.57422 4.28767V25.7127C2.57748 25.9507 2.6276 26.1858 2.72171 26.4044C2.81582 26.6231 2.95208 26.821 3.12272 26.987C3.29335 27.153 3.49501 27.2838 3.71618 27.3718C3.93734 27.4599 4.17369 27.5035 4.41172 27.5002H25.5867C25.8247 27.5035 26.0611 27.4599 26.2823 27.3718C26.5034 27.2838 26.7051 27.153 26.8757 26.987C27.0464 26.821 27.1826 26.6231 27.2767 26.4044C27.3708 26.1858 27.421 25.9507 27.4242 25.7127V4.28767C27.421 4.04965 27.3708 3.81459 27.2767 3.59594C27.1826 3.37728 27.0464 3.1793 26.8757 3.01331C26.7051 2.84733 26.5034 2.71657 26.2823 2.62853C26.0611 2.54048 25.8247 2.49687 25.5867 2.50017ZM10.1117 23.4252H6.36172V12.1752H10.1117V23.4252ZM8.23672 10.6002C7.71955 10.6002 7.22356 10.3947 6.85786 10.029C6.49216 9.66334 6.28672 9.16735 6.28672 8.65017C6.28672 8.133 6.49216 7.63701 6.85786 7.27132C7.22356 6.90562 7.71955 6.70017 8.23672 6.70017C8.51134 6.66903 8.78944 6.69624 9.05281 6.78003C9.31619 6.86382 9.55889 7.00229 9.76504 7.18638C9.97119 7.37047 10.1361 7.59602 10.2491 7.84828C10.362 8.10053 10.4204 8.37379 10.4204 8.65017C10.4204 8.92655 10.362 9.19982 10.2491 9.45207C10.1361 9.70433 9.97119 9.92988 9.76504 10.114C9.55889 10.2981 9.31619 10.4365 9.05281 10.5203C8.78944 10.6041 8.51134 10.6313 8.23672 10.6002ZM23.6367 23.4252H19.8867V17.3877C19.8867 15.8752 19.3492 14.8877 17.9867 14.8877C17.565 14.8908 17.1545 15.023 16.8103 15.2666C16.4661 15.5103 16.2048 15.8535 16.0617 16.2502C15.9639 16.544 15.9215 16.8534 15.9367 17.1627V23.4127H12.1867C12.1867 23.4127 12.1867 13.1877 12.1867 12.1627H15.9367V13.7502C16.2774 13.1591 16.7729 12.6721 17.3698 12.3417C17.9667 12.0113 18.6424 11.85 19.3242 11.8752C21.8242 11.8752 23.6367 13.4877 23.6367 16.9502V23.4252Z" fill="#E5D8C5"/>
</svg>
