<svg width="32" height="32" viewBox="0 0 32 32" fill="none" xmlns="http://www.w3.org/2000/svg">
<path d="M18.4052 2.93406C19.3037 3.27705 20.1183 3.80832 20.7945 4.49221C21.4706 5.1761 21.9925 5.99676 22.3252 6.89906C22.425 7.13628 22.6124 7.3259 22.8484 7.42849C23.0844 7.53107 23.3509 7.53872 23.5924 7.44985C23.8339 7.36097 24.0318 7.18241 24.1451 6.95131C24.2583 6.72021 24.278 6.45436 24.2002 6.20906C23.7696 5.03869 23.0934 3.97404 22.2172 3.08662C21.341 2.19921 20.285 1.50958 19.1202 1.06406C18.8723 0.969247 18.5968 0.976824 18.3544 1.08513C18.112 1.19343 17.9225 1.39358 17.8277 1.64156C17.7329 1.88954 17.7405 2.16503 17.8488 2.40742C17.9571 2.64981 18.1573 2.83925 18.4052 2.93406Z" fill="#EF7828"/>
<path d="M16.1594 3.59375H15.8344C12.8106 3.59375 10.3594 6.04499 10.3594 9.06875V17.3138C10.3594 20.3375 12.8106 22.7888 15.8344 22.7888H16.1594C19.1831 22.7888 21.6344 20.3375 21.6344 17.3138V9.06875C21.6344 6.04499 19.1831 3.59375 16.1594 3.59375Z" fill="#EF7828"/>
<path d="M24.0852 13.584C23.8199 13.584 23.5656 13.6893 23.378 13.8769C23.1905 14.0644 23.0852 14.3188 23.0852 14.584V17.499C23.1103 18.4456 22.9456 19.3876 22.6007 20.2695C22.2558 21.1514 21.7378 21.9552 21.0772 22.6336C20.4165 23.312 19.6267 23.8512 18.7543 24.2194C17.8819 24.5876 16.9446 24.7772 15.9977 24.7772C15.0507 24.7772 14.1134 24.5876 13.241 24.2194C12.3686 23.8512 11.5788 23.312 10.9181 22.6336C10.2575 21.9552 9.73949 21.1514 9.39461 20.2695C9.04974 19.3876 8.88501 18.4456 8.91016 17.499V14.584C8.91016 14.3188 8.8048 14.0644 8.61726 13.8769C8.42973 13.6893 8.17537 13.584 7.91016 13.584C7.64494 13.584 7.39059 13.6893 7.20305 13.8769C7.01551 14.0644 6.91016 14.3188 6.91016 14.584V17.499C6.91231 19.7361 7.73842 21.894 9.23071 23.5606C10.723 25.2272 12.7769 26.2857 15.0002 26.534V29.999C15.0002 30.2642 15.1055 30.5186 15.293 30.7061C15.4806 30.8936 15.7349 30.999 16.0002 30.999C16.2654 30.999 16.5197 30.8936 16.7073 30.7061C16.8948 30.5186 17.0002 30.2642 17.0002 29.999V26.534C19.2225 26.2846 21.2752 25.2255 22.7665 23.559C24.2577 21.8925 25.0831 19.7353 25.0852 17.499V14.584C25.0852 14.3188 24.9798 14.0644 24.7923 13.8769C24.6047 13.6893 24.3504 13.584 24.0852 13.584Z" fill="#EF7828"/>
</svg>
