<svg width="150" height="150" viewBox="0 0 150 150" fill="none" xmlns="http://www.w3.org/2000/svg">
<g clip-path="url(#clip0_3777_2651)">
<rect width="150" height="150" rx="13.4073" fill="black"/>
<g opacity="0.5">
<path d="M107.53 42.4634C122.054 65.509 142.258 78.8779 152.658 72.3238L144.749 77.3081C134.724 83.6263 114.823 70.0661 100.299 47.0205C85.7748 23.9749 82.1278 0.170856 92.1531 -6.14734L100.062 -11.1316C89.6621 -4.57748 93.0056 19.4178 107.53 42.4634Z" fill="url(#paint0_linear_3777_2651)"/>
<path d="M100.213 -11.2253C100.163 -11.1945 100.112 -11.1633 100.062 -11.1316L100.212 -11.2266L100.213 -11.2253Z" fill="url(#paint1_linear_3777_2651)"/>
<path d="M152.808 72.2275L152.808 72.2289L152.658 72.3238C152.708 72.2921 152.758 72.26 152.808 72.2275Z" fill="url(#paint2_linear_3777_2651)"/>
<ellipse cx="126.359" cy="30.595" rx="49.3233" ry="22.2578" transform="rotate(57.7797 126.359 30.595)" fill="url(#paint3_radial_3777_2651)"/>
</g>
<path d="M66.3489 46.2V48.312H61.3809V63H59.1729V48.312H54.2289V46.2H66.3489ZM76.2901 61.488C75.0581 62.704 73.5621 63.312 71.8021 63.312C70.0421 63.312 68.5461 62.704 67.3141 61.488C66.0981 60.272 65.4901 58.776 65.4901 57C65.4901 55.224 66.0981 53.728 67.3141 52.512C68.5461 51.296 70.0421 50.688 71.8021 50.688C73.5621 50.688 75.0581 51.296 76.2901 52.512C77.5221 53.728 78.1381 55.224 78.1381 57C78.1381 58.776 77.5221 60.272 76.2901 61.488ZM71.8021 61.272C73.0021 61.272 74.0101 60.864 74.8261 60.048C75.6421 59.232 76.0501 58.216 76.0501 57C76.0501 55.784 75.6421 54.768 74.8261 53.952C74.0101 53.136 73.0021 52.728 71.8021 52.728C70.6181 52.728 69.6181 53.136 68.8021 53.952C67.9861 54.768 67.5781 55.784 67.5781 57C67.5781 58.216 67.9861 59.232 68.8021 60.048C69.6181 60.864 70.6181 61.272 71.8021 61.272ZM87.2236 50.688C88.9036 50.688 90.3356 51.304 91.5196 52.536C92.7036 53.752 93.2956 55.24 93.2956 57C93.2956 58.76 92.7036 60.256 91.5196 61.488C90.3356 62.704 88.9036 63.312 87.2236 63.312C85.2396 63.312 83.7276 62.52 82.6876 60.936V67.8H80.5996V51H82.6876V53.064C83.7276 51.48 85.2396 50.688 87.2236 50.688ZM86.9596 61.296C88.1596 61.296 89.1676 60.888 89.9836 60.072C90.7996 59.24 91.2076 58.216 91.2076 57C91.2076 55.784 90.7996 54.768 89.9836 53.952C89.1676 53.12 88.1596 52.704 86.9596 52.704C85.7436 52.704 84.7276 53.12 83.9116 53.952C83.0956 54.768 82.6876 55.784 82.6876 57C82.6876 58.216 83.0956 59.24 83.9116 60.072C84.7276 60.888 85.7436 61.296 86.9596 61.296Z" fill="white"/>
<path d="M44.4708 114.435C41.6474 118.065 37.6508 119.88 32.4808 119.88C27.3108 119.88 23.3141 118.065 20.4908 114.435C17.6674 110.768 16.2558 105.873 16.2558 99.75C16.2558 93.6267 17.6674 88.75 20.4908 85.12C23.3141 81.4533 27.3108 79.62 32.4808 79.62C37.6508 79.62 41.6474 81.4533 44.4708 85.12C47.2941 88.75 48.7058 93.6267 48.7058 99.75C48.7058 105.873 47.2941 110.768 44.4708 114.435ZM27.2558 99.75C27.2558 106.057 28.9974 109.21 32.4808 109.21C35.9641 109.21 37.7058 106.057 37.7058 99.75C37.7058 93.4433 35.9641 90.29 32.4808 90.29C28.9974 90.29 27.2558 93.4433 27.2558 99.75ZM60.8393 118.01C59.6293 119.22 58.1443 119.825 56.3843 119.825C54.6243 119.825 53.1209 119.22 51.8743 118.01C50.6643 116.763 50.0593 115.26 50.0593 113.5C50.0593 111.74 50.6643 110.255 51.8743 109.045C53.1209 107.798 54.6243 107.175 56.3843 107.175C58.1443 107.175 59.6293 107.798 60.8393 109.045C62.0859 110.255 62.7093 111.74 62.7093 113.5C62.7093 115.26 62.0859 116.763 60.8393 118.01ZM75.4585 80.5H84.8085V119H73.8085V91.995L67.1535 93.59L64.6235 84.405L75.4585 80.5ZM100.47 100.52C97.4269 100.52 94.8785 99.5117 92.8252 97.495C90.7719 95.4417 89.7452 92.9667 89.7452 90.07C89.7452 87.1733 90.7719 84.7167 92.8252 82.7C94.8785 80.6467 97.4269 79.62 100.47 79.62C103.477 79.62 105.989 80.6467 108.005 82.7C110.059 84.7167 111.085 87.1733 111.085 90.07C111.085 92.9667 110.059 95.4417 108.005 97.495C105.989 99.5117 103.477 100.52 100.47 100.52ZM96.7302 112.895L122.58 85.505L126.595 87.815L100.69 115.15L96.7302 112.895ZM98.4902 92.05C99.0035 92.5633 99.6452 92.82 100.415 92.82C101.185 92.82 101.827 92.545 102.34 91.995C102.854 91.445 103.11 90.8033 103.11 90.07C103.11 89.3 102.854 88.6583 102.34 88.145C101.827 87.595 101.185 87.32 100.415 87.32C99.6452 87.32 99.0035 87.595 98.4902 88.145C98.0135 88.6583 97.7752 89.3 97.7752 90.07C97.7752 90.84 98.0135 91.5 98.4902 92.05ZM123.57 119.88C120.527 119.88 117.979 118.872 115.925 116.855C113.872 114.802 112.845 112.327 112.845 109.43C112.845 106.533 113.872 104.077 115.925 102.06C117.979 100.007 120.527 98.98 123.57 98.98C126.577 98.98 129.089 100.007 131.105 102.06C133.159 104.077 134.185 106.533 134.185 109.43C134.185 112.327 133.159 114.802 131.105 116.855C129.089 118.872 126.577 119.88 123.57 119.88ZM121.59 111.41C122.104 111.923 122.745 112.18 123.515 112.18C124.285 112.18 124.927 111.905 125.44 111.355C125.954 110.805 126.21 110.163 126.21 109.43C126.21 108.66 125.954 108.018 125.44 107.505C124.927 106.955 124.285 106.68 123.515 106.68C122.745 106.68 122.104 106.955 121.59 107.505C121.114 108.018 120.875 108.66 120.875 109.43C120.875 110.2 121.114 110.86 121.59 111.41Z" fill="white"/>
</g>
<rect x="3.35181" y="3.35181" width="143.296" height="143.296" rx="10.0554" stroke="white" strokeWidth="6.70363"/>
<defs>
<linearGradient id="paint0_linear_3777_2651" x1="88.008" y1="-9.21781" x2="147.962" y2="93.5943" gradientUnits="userSpaceOnUse">
<stop offset="0.015625" stop-color="#22075E"/>
<stop offset="0.0843016" stop-color="#C3AAF6"/>
<stop offset="0.180563" stop-color="#724EC0"/>
<stop offset="0.380208" stop-color="#EFEFEF"/>
<stop offset="0.53125" stop-color="#3500A6"/>
<stop offset="0.873731" stop-color="white"/>
</linearGradient>
<linearGradient id="paint1_linear_3777_2651" x1="88.008" y1="-9.21781" x2="147.962" y2="93.5943" gradientUnits="userSpaceOnUse">
<stop offset="0.015625" stop-color="#22075E"/>
<stop offset="0.0843016" stop-color="#C3AAF6"/>
<stop offset="0.180563" stop-color="#724EC0"/>
<stop offset="0.380208" stop-color="#EFEFEF"/>
<stop offset="0.53125" stop-color="#3500A6"/>
<stop offset="0.873731" stop-color="white"/>
</linearGradient>
<linearGradient id="paint2_linear_3777_2651" x1="88.008" y1="-9.21781" x2="147.962" y2="93.5943" gradientUnits="userSpaceOnUse">
<stop offset="0.015625" stop-color="#22075E"/>
<stop offset="0.0843016" stop-color="#C3AAF6"/>
<stop offset="0.180563" stop-color="#724EC0"/>
<stop offset="0.380208" stop-color="#EFEFEF"/>
<stop offset="0.53125" stop-color="#3500A6"/>
<stop offset="0.873731" stop-color="white"/>
</linearGradient>
<radialGradient id="paint3_radial_3777_2651" cx="0" cy="0" r="1" gradientUnits="userSpaceOnUse" gradientTransform="translate(97.3353 12.6107) rotate(19.0087) scale(78.7229 39.4916)">
<stop stop-color="#B79EFF"/>
<stop offset="0.609375" stop-color="#855FF2"/>
<stop offset="1" stop-color="#18005E"/>
</radialGradient>
<clipPath id="clip0_3777_2651">
<rect width="150" height="150" rx="13.4073" fill="white"/>
</clipPath>
</defs>
</svg>
