<svg width="26" height="26" viewBox="0 0 26 26" fill="none" xmlns="http://www.w3.org/2000/svg">
<path d="M26 5.75066C25.022 6.17722 23.9876 6.46072 22.9287 6.59241C24.0446 5.93043 24.8789 4.8822 25.2736 3.64628C24.2288 4.26596 23.0856 4.70233 21.8936 4.93653C21.1628 4.15618 20.2141 3.61365 19.1709 3.37945C18.1277 3.14525 17.0382 3.23019 16.0439 3.62325C15.0496 4.0163 14.1965 4.6993 13.5954 5.58351C12.9944 6.46771 12.6731 7.51225 12.6734 8.58141C12.6734 9.00391 12.7091 9.41016 12.7969 9.79691C10.6764 9.69295 8.6017 9.1426 6.70849 8.18185C4.81527 7.2211 3.14615 5.87159 1.81025 4.22153C1.12583 5.39455 0.91424 6.78434 1.21856 8.10789C1.52288 9.43144 2.32023 10.5892 3.44825 11.3455C2.60448 11.3229 1.77852 11.0977 1.04 10.689V10.7475C1.04141 11.9784 1.46683 13.1711 2.24464 14.125C3.02245 15.0789 4.10515 15.7358 5.3105 15.9849C4.8545 16.1051 4.38455 16.1641 3.913 16.1604C3.57433 16.1664 3.236 16.1359 2.90387 16.0694C3.24828 17.1273 3.91217 18.0525 4.80414 18.7174C5.69611 19.3824 6.77229 19.7545 7.8845 19.7825C5.99778 21.2581 3.67083 22.0585 1.27562 22.0559C0.8385 22.0559 0.41925 22.0364 0 21.9828C2.43731 23.5534 5.27747 24.3842 8.177 24.3748C17.9855 24.3748 23.348 16.2498 23.348 9.20703C23.348 8.97141 23.3399 8.74391 23.3285 8.51803C24.3798 7.76564 25.2851 6.82784 26 5.75066Z" fill="#E5D8C5"/>
</svg>
