<svg width="32" height="32" viewBox="0 0 32 32" fill="none" xmlns="http://www.w3.org/2000/svg">
<path fill-rule="evenodd" clip-rule="evenodd" d="M16.0013 29.3327C23.3653 29.3327 29.3346 23.3633 29.3346 15.9993C29.3346 8.63535 23.3653 2.66602 16.0013 2.66602C8.6373 2.66602 2.66797 8.63535 2.66797 15.9993C2.66797 23.3633 8.6373 29.3327 16.0013 29.3327ZM14.5533 17.7007C14.4413 18.4473 15.076 19.0633 15.8306 19.0633H16.4573C16.6353 19.0634 16.8067 18.9955 16.9365 18.8737C17.0663 18.7518 17.1448 18.585 17.156 18.4073C17.232 17.706 17.5333 17.0927 18.0573 16.5687L18.8973 15.742C19.5533 15.082 20.012 14.4833 20.2746 13.946C20.5373 13.4007 20.668 12.8233 20.668 12.214C20.668 10.874 20.264 9.83802 19.456 9.10735C18.648 8.36868 17.512 7.99935 16.048 7.99935C14.5973 7.99935 13.452 8.38601 12.608 9.16068C12.1084 9.62408 11.7431 10.2137 11.5506 10.8673C11.3053 11.6727 12.0306 12.3753 12.8706 12.3753C13.5826 12.3753 14.1146 11.7953 14.6093 11.2553C14.6786 11.1793 14.7466 11.1033 14.8146 11.0313C15.1266 10.702 15.5373 10.538 16.048 10.538C17.1253 10.538 17.664 11.1433 17.664 12.354C17.664 12.7553 17.56 13.1393 17.3533 13.5047C17.1466 13.8633 16.728 14.3327 16.1 14.9127C15.4786 15.486 15.0506 16.0713 14.8146 16.666C14.6986 16.9607 14.612 17.306 14.5533 17.7007ZM14.6293 21.182C14.3186 21.49 14.1626 21.8847 14.1626 22.3647C14.1626 22.838 14.3146 23.2287 14.6186 23.538C14.9293 23.8447 15.3373 23.9993 15.8413 23.9993C16.3453 23.9993 16.748 23.8447 17.0533 23.5367C17.364 23.2287 17.52 22.838 17.52 22.3647C17.52 21.8847 17.36 21.49 17.0426 21.182C16.732 20.866 16.3306 20.7087 15.8413 20.7087C15.3506 20.7087 14.948 20.866 14.6293 21.182Z" fill="#E5D8C5" fill-opacity="0.8"/>
</svg>
